<?xml version="1.0" encoding="UTF-8" standalone="no"?>
<!-- 
    The icon below is adapted from the "arrow-circle-down" solid icon found in Font Awesome version 5.0 <https://fontawesome.com>.
    This adaption was made from the desktop SVG icon set.
    For more license information see LICENSE.txt in this directory.
-->

<svg
   xmlns:dc="http://purl.org/dc/elements/1.1/"
   xmlns:cc="http://creativecommons.org/ns#"
   xmlns:rdf="http://www.w3.org/1999/02/22-rdf-syntax-ns#"
   xmlns:svg="http://www.w3.org/2000/svg"
   xmlns="http://www.w3.org/2000/svg"
   xmlns:sodipodi="http://sodipodi.sourceforge.net/DTD/sodipodi-0.dtd"
   xmlns:inkscape="http://www.inkscape.org/namespaces/inkscape"
   viewBox="0 0 512 512"
   version="1.1"
   id="svg4"
   sodipodi:docname="app-icon.svg"
   inkscape:version="0.92.2 5c3e80d, 2017-08-06">
  <metadata
     id="metadata10">
    <rdf:RDF>
      <cc:Work
         rdf:about="">
        <dc:format>image/svg+xml</dc:format>
        <dc:type
           rdf:resource="http://purl.org/dc/dcmitype/StillImage" />
      </cc:Work>
    </rdf:RDF>
  </metadata>
  <defs
     id="defs8">
    <inkscape:perspective
       sodipodi:type="inkscape:persp3d"
       inkscape:vp_x="0 : 256 : 1"
       inkscape:vp_y="0 : 1000 : 0"
       inkscape:vp_z="512 : 256 : 1"
       inkscape:persp3d-origin="256 : 170.66667 : 1"
       id="perspective819" />
  </defs>
  <sodipodi:namedview
     pagecolor="#ffffff"
     bordercolor="#666666"
     borderopacity="1"
     objecttolerance="10"
     gridtolerance="10"
     guidetolerance="10"
     inkscape:pageopacity="0"
     inkscape:pageshadow="2"
     inkscape:window-width="1684"
     inkscape:window-height="975"
     id="namedview6"
     showgrid="false"
     inkscape:zoom="2.6074563"
     inkscape:cx="256.63543"
     inkscape:cy="329.61628"
     inkscape:window-x="0"
     inkscape:window-y="0"
     inkscape:window-maximized="0"
     inkscape:current-layer="layer1" />
  <g
     inkscape:groupmode="layer"
     id="layer1"
     inkscape:label="White"
     style="display:inline">
    <rect
       style="fill:#ffffff;fill-opacity:1;stroke-width:0.98131287"
       id="rect845"
       width="323.30362"
       height="321.0025"
       x="92.427246"
       y="92.817513" />
  </g>
  <g
     inkscape:groupmode="layer"
     id="layer2"
     inkscape:label="Icon"
     style="display:inline">
    <path
       d="M 504,256 C 504,393 393,504 256,504 119,504 8,393 8,256 8,119 119,8 256,8 393,8 504,119 504,256 Z M 360.4,227.1 288,302.6 V 120 c 0,-13.3 -10.7,-24 -24,-24 h -16 c -13.3,0 -24,10.7 -24,24 v 182.6 l -72.4,-75.5 c -9.3,-9.7 -24.8,-9.9 -34.3,-0.4 l -10.9,11 c -9.4,9.4 -9.4,24.6 0,33.9 L 239,404.3 c 9.4,9.4 24.6,9.4 33.9,0 L 405.6,271.6 c 9.4,-9.4 9.4,-24.6 0,-33.9 l -10.9,-11 c -9.5,-9.5 -25,-9.3 -34.3,0.4 z"
       id="path2"
       inkscape:connector-curvature="0" />
  </g>
</svg>
